<svg xmlns="http://www.w3.org/2000/svg" version="1.1" xmlns:xlink="http://www.w3.org/1999/xlink" xmlns:svgjs="http://svgjs.dev/svgjs" width="500" height="500"><svg id="SvgjsSvg1070" data-name="Layer 1" xmlns="http://www.w3.org/2000/svg" viewBox="0 0 500 500">
  <defs>
    <style>
      .cls-1 {
        fill: #202a3c;
      }

      .cls-2 {
        fill: #fff;
      }
    </style>
  </defs>
  <circle class="cls-2" cx="250" cy="250" r="250"></circle>
  <g>
    <path class="cls-1" d="M236.09,499.66c-1.33-.17-6.72-.78-6.99-1.01-1.06-.88,3.58-20.37,2.86-27.34-.85-8.23-9.8-22.66-9.82-24.11-.02-1.67,2.96-4.48,2.95-8.01-.02-6.06-.56-11.94-1.02-17.96-6.61-87.18-29.58-175.32-32.49-263.38,74.87-34.15,151.15-65.08,230.14-88.72l3.78,2.85.52,184.83c-64.75-21.41-136.45,31.21-124.67,101.15,15.89,94.39,170.52,66.85,170.74-22.7.03-13.16-9.76-28.45-9.89-32.14-.06-1.57,6.7-11.61,4.86-15.78l-2.03-163.43c21.47,33.49,32.61,74.2,34.98,113.92v23.98c-5.76,127.04-110.08,231.2-236.92,237.84-8.49-.79-18.75,1.07-26.99,0Z"></path>
    <path class="cls-1" d="M245.08,0l-68.22,29.34c-6.85-3.22-16.67-4.39-18.68,5.2-2.91,13.84-.43,57.2-.1,73.92,2.05,102.08,12.22,206.98,24.03,308.25-25.98,1.51-50.85,5.82-75.49,13.99-3.27,1.08-18.47,8.78-19.5,8.53-1.48-.36-19.52-18.29-22-20.98C26.2,375.98,3.76,319.11.16,261.82c.37-8.27-.51-16.73,0-24.98C6.85,127.92,83.47,33.03,189.9,7.3L241.08,0h4Z"></path>
    <path class="cls-1" d="M383.03,39.96c-56.06,20.86-112.72,42.1-165.96,69.44-4.26,2.19-25.36,15.89-26.92,16.09s-2.08.82-2.89-1.25l-5.5-79.12L302.59,5.96c27.93,5.97,58.03,16.07,80.44,34Z"></path>
  </g>
</svg><style>@media (prefers-color-scheme: light) { :root { filter: none; } }
@media (prefers-color-scheme: dark) { :root { filter: none; } }
</style></svg>