<svg xmlns="http://www.w3.org/2000/svg" xmlns:xlink="http://www.w3.org/1999/xlink" width="500" zoomAndPan="magnify" viewBox="0 0 375 112.499997" height="150" preserveAspectRatio="xMidYMid meet" version="1.2"><defs><clipPath id="9d2d6f5835"><path d="M 3.785156 2.730469 L 110.558594 2.730469 L 110.558594 109.507812 L 3.785156 109.507812 Z M 3.785156 2.730469 "/></clipPath><clipPath id="0fdb273f83"><path d="M 44 17 L 110.558594 17 L 110.558594 109.507812 L 44 109.507812 Z M 44 17 "/></clipPath><clipPath id="5e432c2f9f"><path d="M 3.785156 2.730469 L 56 2.730469 L 56 97 L 3.785156 97 Z M 3.785156 2.730469 "/></clipPath></defs><g id="cfa112d448"><g clip-rule="nonzero" clip-path="url(#9d2d6f5835)"><path style=" stroke:none;fill-rule:nonzero;fill:#ffffff;fill-opacity:1;" d="M 110.3125 55.996094 C 110.3125 57.742188 110.226562 59.480469 110.058594 61.21875 C 109.886719 62.953125 109.628906 64.679688 109.289062 66.390625 C 108.949219 68.101562 108.527344 69.789062 108.019531 71.460938 C 107.515625 73.128906 106.925781 74.769531 106.257812 76.382812 C 105.589844 77.992188 104.847656 79.566406 104.023438 81.105469 C 103.203125 82.644531 102.304688 84.140625 101.335938 85.589844 C 100.367188 87.039062 99.328125 88.441406 98.222656 89.789062 C 97.117188 91.136719 95.945312 92.429688 94.714844 93.660156 C 93.480469 94.894531 92.1875 96.066406 90.839844 97.171875 C 89.492188 98.277344 88.09375 99.316406 86.640625 100.285156 C 85.191406 101.253906 83.695312 102.152344 82.15625 102.972656 C 80.621094 103.796875 79.042969 104.539062 77.433594 105.207031 C 75.820312 105.875 74.179688 106.460938 72.511719 106.96875 C 70.839844 107.476562 69.152344 107.898438 67.441406 108.238281 C 65.730469 108.578125 64.003906 108.835938 62.269531 109.007812 C 60.535156 109.175781 58.792969 109.261719 57.046875 109.261719 C 55.304688 109.261719 53.5625 109.175781 51.828125 109.007812 C 50.089844 108.835938 48.367188 108.578125 46.65625 108.238281 C 44.945312 107.898438 43.257812 107.476562 41.585938 106.96875 C 39.917969 106.460938 38.277344 105.875 36.664062 105.207031 C 35.054688 104.539062 33.476562 103.796875 31.941406 102.972656 C 30.402344 102.152344 28.90625 101.253906 27.457031 100.285156 C 26.003906 99.316406 24.605469 98.277344 23.257812 97.171875 C 21.910156 96.066406 20.617188 94.894531 19.382812 93.660156 C 18.152344 92.429688 16.980469 91.136719 15.875 89.789062 C 14.765625 88.441406 13.730469 87.039062 12.761719 85.589844 C 11.792969 84.140625 10.894531 82.644531 10.074219 81.105469 C 9.25 79.566406 8.503906 77.992188 7.839844 76.382812 C 7.171875 74.769531 6.582031 73.128906 6.078125 71.460938 C 5.570312 69.789062 5.148438 68.101562 4.808594 66.390625 C 4.464844 64.679688 4.210938 62.953125 4.039062 61.21875 C 3.867188 59.480469 3.785156 57.742188 3.785156 55.996094 C 3.785156 54.253906 3.867188 52.511719 4.039062 50.777344 C 4.210938 49.039062 4.464844 47.316406 4.808594 45.605469 C 5.148438 43.894531 5.570312 42.203125 6.078125 40.535156 C 6.582031 38.867188 7.171875 37.226562 7.839844 35.613281 C 8.503906 34 9.25 32.425781 10.074219 30.886719 C 10.894531 29.351562 11.792969 27.855469 12.761719 26.40625 C 13.730469 24.953125 14.765625 23.554688 15.875 22.207031 C 16.980469 20.859375 18.152344 19.566406 19.382812 18.332031 C 20.617188 17.097656 21.910156 15.929688 23.257812 14.824219 C 24.605469 13.714844 26.003906 12.679688 27.457031 11.707031 C 28.90625 10.738281 30.402344 9.84375 31.941406 9.023438 C 33.476562 8.199219 35.054688 7.453125 36.664062 6.785156 C 38.277344 6.117188 39.917969 5.53125 41.585938 5.027344 C 43.257812 4.519531 44.945312 4.097656 46.65625 3.753906 C 48.367188 3.414062 50.089844 3.160156 51.828125 2.988281 C 53.5625 2.816406 55.304688 2.730469 57.046875 2.730469 C 58.792969 2.730469 60.535156 2.816406 62.269531 2.988281 C 64.003906 3.160156 65.730469 3.414062 67.441406 3.753906 C 69.152344 4.097656 70.839844 4.519531 72.511719 5.027344 C 74.179688 5.53125 75.820312 6.117188 77.433594 6.785156 C 79.042969 7.453125 80.621094 8.199219 82.15625 9.023438 C 83.695312 9.84375 85.191406 10.738281 86.640625 11.707031 C 88.09375 12.679688 89.492188 13.714844 90.839844 14.824219 C 92.1875 15.929688 93.480469 17.097656 94.714844 18.332031 C 95.945312 19.566406 97.117188 20.859375 98.222656 22.207031 C 99.328125 23.554688 100.367188 24.953125 101.335938 26.40625 C 102.304688 27.855469 103.203125 29.351562 104.023438 30.886719 C 104.847656 32.425781 105.589844 34 106.257812 35.613281 C 106.925781 37.226562 107.515625 38.867188 108.019531 40.535156 C 108.527344 42.203125 108.949219 43.894531 109.289062 45.605469 C 109.628906 47.316406 109.886719 49.039062 110.058594 50.777344 C 110.226562 52.511719 110.3125 54.253906 110.3125 55.996094 Z M 110.3125 55.996094 "/></g><g clip-rule="nonzero" clip-path="url(#0fdb273f83)"><path style=" stroke:none;fill-rule:nonzero;fill:#112f51;fill-opacity:1;" d="M 54.085938 109.191406 C 53.800781 109.152344 52.652344 109.023438 52.597656 108.976562 C 52.371094 108.789062 53.359375 104.636719 53.207031 103.148438 C 53.023438 101.394531 51.117188 98.320312 51.113281 98.011719 C 51.109375 97.65625 51.742188 97.058594 51.742188 96.304688 C 51.738281 95.015625 51.621094 93.761719 51.523438 92.480469 C 50.117188 73.90625 45.222656 55.125 44.601562 36.363281 C 60.554688 29.085938 76.804688 22.496094 93.636719 17.460938 L 94.441406 18.066406 L 94.550781 57.449219 C 80.757812 52.886719 65.480469 64.097656 67.988281 79 C 71.375 99.109375 104.320312 93.242188 104.367188 74.164062 C 104.375 71.359375 102.289062 68.101562 102.261719 67.316406 C 102.246094 66.980469 103.6875 64.839844 103.296875 63.953125 L 102.863281 29.132812 C 107.4375 36.269531 109.8125 44.941406 110.316406 53.40625 L 110.316406 58.511719 C 109.089844 85.582031 86.863281 107.773438 59.835938 109.1875 C 58.027344 109.019531 55.84375 109.414062 54.085938 109.1875 Z M 54.085938 109.191406 "/></g><g clip-rule="nonzero" clip-path="url(#5e432c2f9f)"><path style=" stroke:none;fill-rule:nonzero;fill:#112f51;fill-opacity:1;" d="M 56 2.730469 L 41.464844 8.984375 C 40.007812 8.296875 37.914062 8.046875 37.484375 10.089844 C 36.867188 13.039062 37.394531 22.277344 37.464844 25.839844 C 37.902344 47.589844 40.066406 69.941406 42.585938 91.515625 C 37.046875 91.839844 31.75 92.757812 26.5 94.496094 C 25.804688 94.726562 22.566406 96.367188 22.34375 96.316406 C 22.03125 96.238281 18.1875 92.417969 17.65625 91.84375 C 9.367188 82.839844 4.585938 70.722656 3.816406 58.515625 C 3.894531 56.753906 3.707031 54.949219 3.816406 53.195312 C 5.242188 29.988281 21.566406 9.769531 44.242188 4.289062 L 55.148438 2.730469 Z M 56 2.730469 "/></g><path style=" stroke:none;fill-rule:nonzero;fill:#112f51;fill-opacity:1;" d="M 85.390625 11.246094 C 73.449219 15.691406 61.375 20.214844 50.03125 26.039062 C 49.125 26.507812 44.628906 29.425781 44.296875 29.46875 C 43.964844 29.511719 43.855469 29.644531 43.679688 29.203125 L 42.507812 12.34375 L 68.253906 4 C 74.203125 5.273438 80.617188 7.425781 85.390625 11.246094 Z M 85.390625 11.246094 "/><g style="fill:#0a2b4d;fill-opacity:1;"><g transform="translate(113.801361, 69.441412)"><path style="stroke:none" d="M 1.421875 -23.921875 L 1.421875 -28.96875 L 25.203125 -28.96875 L 25.203125 -23.921875 L 16.328125 -23.921875 L 16.328125 0 L 10.28125 0 L 10.28125 -23.921875 Z M 1.421875 -23.921875 "/></g></g><g style="fill:#0a2b4d;fill-opacity:1;"><g transform="translate(136.250372, 69.441412)"><path style="stroke:none" d="M 12.3125 0.421875 C 10.082031 0.421875 8.160156 -0.03125 6.546875 -0.9375 C 4.929688 -1.851562 3.691406 -3.144531 2.828125 -4.8125 C 1.960938 -6.488281 1.53125 -8.472656 1.53125 -10.765625 C 1.53125 -12.992188 1.960938 -14.953125 2.828125 -16.640625 C 3.691406 -18.328125 4.914062 -19.640625 6.5 -20.578125 C 8.082031 -21.523438 9.9375 -22 12.0625 -22 C 13.976562 -22 15.707031 -21.59375 17.25 -20.78125 C 18.789062 -19.976562 20.015625 -18.757812 20.921875 -17.125 C 21.828125 -15.488281 22.28125 -13.4375 22.28125 -10.96875 L 22.28125 -9.328125 L 7.484375 -9.328125 L 7.484375 -9.3125 C 7.484375 -7.6875 7.925781 -6.40625 8.8125 -5.46875 C 9.695312 -4.539062 10.894531 -4.078125 12.40625 -4.078125 C 13.414062 -4.078125 14.285156 -4.285156 15.015625 -4.703125 C 15.753906 -5.128906 16.273438 -5.757812 16.578125 -6.59375 L 22.15625 -6.21875 C 21.726562 -4.207031 20.648438 -2.597656 18.921875 -1.390625 C 17.191406 -0.179688 14.988281 0.421875 12.3125 0.421875 Z M 7.484375 -13.046875 L 16.609375 -13.046875 C 16.597656 -14.335938 16.179688 -15.40625 15.359375 -16.25 C 14.535156 -17.09375 13.46875 -17.515625 12.15625 -17.515625 C 10.820312 -17.515625 9.722656 -17.078125 8.859375 -16.203125 C 8.003906 -15.335938 7.546875 -14.285156 7.484375 -13.046875 Z M 7.484375 -13.046875 "/></g></g><g style="fill:#0a2b4d;fill-opacity:1;"><g transform="translate(159.053002, 69.441412)"><path style="stroke:none" d="M 8.421875 -12.5625 L 8.421875 0 L 2.40625 0 L 2.40625 -21.71875 L 8.140625 -21.71875 L 8.140625 -17.890625 L 8.40625 -17.890625 C 8.894531 -19.148438 9.703125 -20.148438 10.828125 -20.890625 C 11.953125 -21.628906 13.320312 -22 14.9375 -22 C 17.195312 -22 19.007812 -21.269531 20.375 -19.8125 C 21.75 -18.363281 22.4375 -16.367188 22.4375 -13.828125 L 22.4375 0 L 16.40625 0 L 16.40625 -12.75 C 16.414062 -14.082031 16.078125 -15.125 15.390625 -15.875 C 14.703125 -16.625 13.753906 -17 12.546875 -17 C 11.328125 -17 10.335938 -16.609375 9.578125 -15.828125 C 8.816406 -15.054688 8.429688 -13.96875 8.421875 -12.5625 Z M 8.421875 -12.5625 "/></g></g><g style="fill:#0a2b4d;fill-opacity:1;"><g transform="translate(182.81717, 69.441412)"><path style="stroke:none" d="M 12.21875 0.421875 C 10.019531 0.421875 8.117188 -0.046875 6.515625 -0.984375 C 4.921875 -1.921875 3.691406 -3.226562 2.828125 -4.90625 C 1.960938 -6.59375 1.53125 -8.550781 1.53125 -10.78125 C 1.53125 -13.019531 1.960938 -14.976562 2.828125 -16.65625 C 3.691406 -18.34375 4.921875 -19.65625 6.515625 -20.59375 C 8.117188 -21.53125 10.019531 -22 12.21875 -22 C 14.414062 -22 16.3125 -21.53125 17.90625 -20.59375 C 19.507812 -19.65625 20.742188 -18.34375 21.609375 -16.65625 C 22.472656 -14.976562 22.90625 -13.019531 22.90625 -10.78125 C 22.90625 -8.550781 22.472656 -6.59375 21.609375 -4.90625 C 20.742188 -3.226562 19.507812 -1.921875 17.90625 -0.984375 C 16.3125 -0.046875 14.414062 0.421875 12.21875 0.421875 Z M 12.25 -4.25 C 13.738281 -4.25 14.863281 -4.867188 15.625 -6.109375 C 16.394531 -7.359375 16.78125 -8.925781 16.78125 -10.8125 C 16.78125 -12.707031 16.394531 -14.28125 15.625 -15.53125 C 14.863281 -16.78125 13.738281 -17.40625 12.25 -17.40625 C 10.726562 -17.40625 9.582031 -16.78125 8.8125 -15.53125 C 8.039062 -14.28125 7.65625 -12.707031 7.65625 -10.8125 C 7.65625 -8.925781 8.039062 -7.359375 8.8125 -6.109375 C 9.582031 -4.867188 10.726562 -4.25 12.25 -4.25 Z M 12.25 -4.25 "/></g></g><g style="fill:#0a2b4d;fill-opacity:1;"><g transform="translate(206.256113, 69.441412)"><path style="stroke:none" d="M 2.40625 0 L 2.40625 -21.71875 L 8.25 -21.71875 L 8.25 -17.9375 L 8.46875 -17.9375 C 8.863281 -19.28125 9.523438 -20.296875 10.453125 -20.984375 C 11.390625 -21.679688 12.46875 -22.03125 13.6875 -22.03125 C 14.269531 -22.03125 14.8125 -21.957031 15.3125 -21.8125 C 15.8125 -21.675781 16.257812 -21.488281 16.65625 -21.25 L 14.84375 -16.265625 C 14.5625 -16.410156 14.253906 -16.53125 13.921875 -16.625 C 13.585938 -16.726562 13.210938 -16.78125 12.796875 -16.78125 C 11.578125 -16.78125 10.546875 -16.363281 9.703125 -15.53125 C 8.859375 -14.695312 8.429688 -13.617188 8.421875 -12.296875 L 8.421875 0 Z M 2.40625 0 "/></g></g><g style="fill:#63748b;fill-opacity:1;"><g transform="translate(222.135858, 69.441412)"><path style="stroke:none" d="M 26.8125 -19.90625 L 23.3125 -19.90625 C 23.03125 -21.25 22.488281 -22.378906 21.6875 -23.296875 C 20.882812 -24.210938 19.914062 -24.90625 18.78125 -25.375 C 17.644531 -25.84375 16.4375 -26.078125 15.15625 -26.078125 C 13.40625 -26.078125 11.820312 -25.632812 10.40625 -24.75 C 8.988281 -23.863281 7.859375 -22.554688 7.015625 -20.828125 C 6.179688 -19.109375 5.765625 -16.992188 5.765625 -14.484375 C 5.765625 -11.972656 6.179688 -9.851562 7.015625 -8.125 C 7.859375 -6.40625 8.988281 -5.101562 10.40625 -4.21875 C 11.820312 -3.332031 13.40625 -2.890625 15.15625 -2.890625 C 16.4375 -2.890625 17.644531 -3.125 18.78125 -3.59375 C 19.914062 -4.0625 20.882812 -4.753906 21.6875 -5.671875 C 22.488281 -6.585938 23.03125 -7.710938 23.3125 -9.046875 L 26.8125 -9.046875 C 26.457031 -7.066406 25.726562 -5.375 24.625 -3.96875 C 23.519531 -2.5625 22.148438 -1.484375 20.515625 -0.734375 C 18.890625 0.015625 17.101562 0.390625 15.15625 0.390625 C 12.6875 0.390625 10.488281 -0.207031 8.5625 -1.40625 C 6.644531 -2.613281 5.132812 -4.332031 4.03125 -6.5625 C 2.925781 -8.789062 2.375 -11.429688 2.375 -14.484375 C 2.375 -17.535156 2.925781 -20.171875 4.03125 -22.390625 C 5.132812 -24.617188 6.644531 -26.335938 8.5625 -27.546875 C 10.488281 -28.753906 12.6875 -29.359375 15.15625 -29.359375 C 17.101562 -29.359375 18.890625 -28.984375 20.515625 -28.234375 C 22.148438 -27.484375 23.519531 -26.40625 24.625 -25 C 25.726562 -23.59375 26.457031 -21.894531 26.8125 -19.90625 Z M 26.8125 -19.90625 "/></g></g><g style="fill:#63748b;fill-opacity:1;"><g transform="translate(250.099711, 69.441412)"><path style="stroke:none" d="M 3.0625 0 L 3.0625 -21.71875 L 6.28125 -21.71875 L 6.28125 -18.4375 L 6.5 -18.4375 C 6.882812 -19.519531 7.597656 -20.394531 8.640625 -21.0625 C 9.679688 -21.726562 10.851562 -22.0625 12.15625 -22.0625 C 12.757812 -22.0625 13.285156 -21.988281 13.734375 -21.84375 C 14.191406 -21.707031 14.59375 -21.515625 14.9375 -21.265625 L 13.796875 -18.4375 C 13.566406 -18.5625 13.289062 -18.660156 12.96875 -18.734375 C 12.65625 -18.804688 12.289062 -18.84375 11.875 -18.84375 C 10.289062 -18.84375 8.976562 -18.359375 7.9375 -17.390625 C 6.90625 -16.421875 6.390625 -15.207031 6.390625 -13.75 L 6.390625 0 Z M 3.0625 0 "/></g></g><g style="fill:#63748b;fill-opacity:1;"><g transform="translate(263.696954, 69.441412)"><path style="stroke:none" d="M 12.15625 0.453125 C 10.070312 0.453125 8.269531 -0.0078125 6.75 -0.9375 C 5.238281 -1.863281 4.070312 -3.164062 3.25 -4.84375 C 2.4375 -6.519531 2.03125 -8.46875 2.03125 -10.6875 C 2.03125 -12.914062 2.4375 -14.878906 3.25 -16.578125 C 4.070312 -18.285156 5.210938 -19.613281 6.671875 -20.5625 C 8.140625 -21.519531 9.859375 -22 11.828125 -22 C 12.953125 -22 14.066406 -21.8125 15.171875 -21.4375 C 16.273438 -21.0625 17.28125 -20.453125 18.1875 -19.609375 C 19.09375 -18.765625 19.8125 -17.648438 20.34375 -16.265625 C 20.882812 -14.878906 21.15625 -13.171875 21.15625 -11.140625 L 21.15625 -9.734375 L 5.390625 -9.734375 C 5.460938 -7.410156 6.117188 -5.628906 7.359375 -4.390625 C 8.597656 -3.160156 10.195312 -2.546875 12.15625 -2.546875 C 13.46875 -2.546875 14.59375 -2.828125 15.53125 -3.390625 C 16.476562 -3.960938 17.164062 -4.8125 17.59375 -5.9375 L 20.8125 -5.03125 C 20.3125 -3.394531 19.296875 -2.070312 17.765625 -1.0625 C 16.234375 -0.0507812 14.363281 0.453125 12.15625 0.453125 Z M 5.390625 -12.609375 L 17.765625 -12.609375 C 17.765625 -14.453125 17.226562 -15.976562 16.15625 -17.1875 C 15.082031 -18.40625 13.640625 -19.015625 11.828125 -19.015625 C 10.554688 -19.015625 9.453125 -18.71875 8.515625 -18.125 C 7.578125 -17.53125 6.835938 -16.742188 6.296875 -15.765625 C 5.765625 -14.785156 5.460938 -13.734375 5.390625 -12.609375 Z M 5.390625 -12.609375 "/></g></g><g style="fill:#63748b;fill-opacity:1;"><g transform="translate(285.891549, 69.441412)"><path style="stroke:none" d="M 9.453125 0.515625 C 8.078125 0.515625 6.828125 0.253906 5.703125 -0.265625 C 4.578125 -0.796875 3.679688 -1.554688 3.015625 -2.546875 C 2.359375 -3.546875 2.03125 -4.753906 2.03125 -6.171875 C 2.03125 -7.410156 2.273438 -8.414062 2.765625 -9.1875 C 3.253906 -9.96875 3.910156 -10.582031 4.734375 -11.03125 C 5.554688 -11.476562 6.460938 -11.8125 7.453125 -12.03125 C 8.453125 -12.25 9.457031 -12.425781 10.46875 -12.5625 C 11.789062 -12.726562 12.863281 -12.851562 13.6875 -12.9375 C 14.507812 -13.03125 15.109375 -13.1875 15.484375 -13.40625 C 15.867188 -13.625 16.0625 -14.003906 16.0625 -14.546875 L 16.0625 -14.65625 C 16.0625 -16.050781 15.679688 -17.132812 14.921875 -17.90625 C 14.171875 -18.675781 13.023438 -19.0625 11.484375 -19.0625 C 9.890625 -19.0625 8.640625 -18.710938 7.734375 -18.015625 C 6.828125 -17.316406 6.191406 -16.570312 5.828125 -15.78125 L 2.65625 -16.921875 C 3.21875 -18.234375 3.972656 -19.257812 4.921875 -20 C 5.867188 -20.738281 6.90625 -21.253906 8.03125 -21.546875 C 9.164062 -21.847656 10.28125 -22 11.375 -22 C 12.070312 -22 12.875 -21.914062 13.78125 -21.75 C 14.6875 -21.59375 15.566406 -21.257812 16.421875 -20.75 C 17.273438 -20.238281 17.984375 -19.46875 18.546875 -18.4375 C 19.117188 -17.414062 19.40625 -16.039062 19.40625 -14.3125 L 19.40625 0 L 16.0625 0 L 16.0625 -2.9375 L 15.890625 -2.9375 C 15.671875 -2.46875 15.296875 -1.960938 14.765625 -1.421875 C 14.234375 -0.890625 13.53125 -0.429688 12.65625 -0.046875 C 11.78125 0.328125 10.710938 0.515625 9.453125 0.515625 Z M 9.953125 -2.484375 C 11.273438 -2.484375 12.390625 -2.742188 13.296875 -3.265625 C 14.210938 -3.785156 14.898438 -4.453125 15.359375 -5.265625 C 15.828125 -6.085938 16.0625 -6.953125 16.0625 -7.859375 L 16.0625 -10.921875 C 15.925781 -10.753906 15.617188 -10.597656 15.140625 -10.453125 C 14.660156 -10.316406 14.113281 -10.195312 13.5 -10.09375 C 12.882812 -10 12.285156 -9.914062 11.703125 -9.84375 C 11.117188 -9.78125 10.648438 -9.722656 10.296875 -9.671875 C 9.429688 -9.554688 8.625 -9.375 7.875 -9.125 C 7.125 -8.875 6.519531 -8.5 6.0625 -8 C 5.601562 -7.507812 5.375 -6.84375 5.375 -6 C 5.375 -4.832031 5.804688 -3.953125 6.671875 -3.359375 C 7.535156 -2.773438 8.628906 -2.484375 9.953125 -2.484375 Z M 9.953125 -2.484375 "/></g></g><g style="fill:#63748b;fill-opacity:1;"><g transform="translate(307.350846, 69.441412)"><path style="stroke:none" d="M 12.5 -21.71875 L 12.5 -18.890625 L 7.859375 -18.890625 L 7.859375 -6.21875 C 7.859375 -5.28125 8 -4.578125 8.28125 -4.109375 C 8.5625 -3.640625 8.921875 -3.328125 9.359375 -3.171875 C 9.796875 -3.015625 10.257812 -2.9375 10.75 -2.9375 C 11.113281 -2.9375 11.410156 -2.957031 11.640625 -3 C 11.878906 -3.039062 12.070312 -3.078125 12.21875 -3.109375 L 12.90625 -0.109375 C 12.675781 -0.0234375 12.359375 0.0546875 11.953125 0.140625 C 11.546875 0.234375 11.03125 0.28125 10.40625 0.28125 C 9.46875 0.28125 8.546875 0.078125 7.640625 -0.328125 C 6.742188 -0.734375 6 -1.347656 5.40625 -2.171875 C 4.820312 -3.003906 4.53125 -4.050781 4.53125 -5.3125 L 4.53125 -18.890625 L 1.25 -18.890625 L 1.25 -21.71875 L 4.53125 -21.71875 L 4.53125 -26.921875 L 7.859375 -26.921875 L 7.859375 -21.71875 Z M 12.5 -21.71875 "/></g></g><g style="fill:#63748b;fill-opacity:1;"><g transform="translate(320.834987, 69.441412)"><path style="stroke:none" d="M 3.0625 0 L 3.0625 -21.71875 L 6.390625 -21.71875 L 6.390625 0 Z M 4.75 -25.34375 C 4.101562 -25.34375 3.546875 -25.5625 3.078125 -26 C 2.609375 -26.445312 2.375 -26.984375 2.375 -27.609375 C 2.375 -28.234375 2.609375 -28.765625 3.078125 -29.203125 C 3.546875 -29.648438 4.101562 -29.875 4.75 -29.875 C 5.40625 -29.875 5.960938 -29.648438 6.421875 -29.203125 C 6.890625 -28.765625 7.125 -28.234375 7.125 -27.609375 C 7.125 -26.984375 6.890625 -26.445312 6.421875 -26 C 5.960938 -25.5625 5.40625 -25.34375 4.75 -25.34375 Z M 4.75 -25.34375 "/></g></g><g style="fill:#63748b;fill-opacity:1;"><g transform="translate(329.285169, 69.441412)"><path style="stroke:none" d="M 20.8125 -21.71875 L 12.78125 0 L 9.390625 0 L 1.359375 -21.71875 L 4.984375 -21.71875 L 10.96875 -4.40625 L 11.203125 -4.40625 L 17.203125 -21.71875 Z M 20.8125 -21.71875 "/></g></g><g style="fill:#63748b;fill-opacity:1;"><g transform="translate(349.669766, 69.441412)"><path style="stroke:none" d="M 12.15625 0.453125 C 10.070312 0.453125 8.269531 -0.0078125 6.75 -0.9375 C 5.238281 -1.863281 4.070312 -3.164062 3.25 -4.84375 C 2.4375 -6.519531 2.03125 -8.46875 2.03125 -10.6875 C 2.03125 -12.914062 2.4375 -14.878906 3.25 -16.578125 C 4.070312 -18.285156 5.210938 -19.613281 6.671875 -20.5625 C 8.140625 -21.519531 9.859375 -22 11.828125 -22 C 12.953125 -22 14.066406 -21.8125 15.171875 -21.4375 C 16.273438 -21.0625 17.28125 -20.453125 18.1875 -19.609375 C 19.09375 -18.765625 19.8125 -17.648438 20.34375 -16.265625 C 20.882812 -14.878906 21.15625 -13.171875 21.15625 -11.140625 L 21.15625 -9.734375 L 5.390625 -9.734375 C 5.460938 -7.410156 6.117188 -5.628906 7.359375 -4.390625 C 8.597656 -3.160156 10.195312 -2.546875 12.15625 -2.546875 C 13.46875 -2.546875 14.59375 -2.828125 15.53125 -3.390625 C 16.476562 -3.960938 17.164062 -4.8125 17.59375 -5.9375 L 20.8125 -5.03125 C 20.3125 -3.394531 19.296875 -2.070312 17.765625 -1.0625 C 16.234375 -0.0507812 14.363281 0.453125 12.15625 0.453125 Z M 5.390625 -12.609375 L 17.765625 -12.609375 C 17.765625 -14.453125 17.226562 -15.976562 16.15625 -17.1875 C 15.082031 -18.40625 13.640625 -19.015625 11.828125 -19.015625 C 10.554688 -19.015625 9.453125 -18.71875 8.515625 -18.125 C 7.578125 -17.53125 6.835938 -16.742188 6.296875 -15.765625 C 5.765625 -14.785156 5.460938 -13.734375 5.390625 -12.609375 Z M 5.390625 -12.609375 "/></g></g></g></svg>